<svg width="616" height="616" viewBox="0 0 616 616" fill="none" xmlns="http://www.w3.org/2000/svg">
<g clip-path="url(#clip0_1179_17)">
<path d="M308 0C478.104 0 616 137.896 616 308C616 478.104 478.104 616 308 616C137.896 616 0 478.104 0 308C0 137.896 137.896 0 308 0ZM194.04 447.681C194.04 448.785 194.935 449.681 196.04 449.681H269.04C270.145 449.681 271.04 448.785 271.04 447.681V177.561C271.04 176.456 270.145 175.561 269.04 175.561H196.04C194.935 175.561 194.04 176.456 194.04 177.561V447.681ZM340.8 175.561C339.695 175.561 338.8 176.456 338.8 177.561V447.681C338.8 448.785 339.695 449.681 340.8 449.681H413.8C414.904 449.681 415.8 448.785 415.8 447.681V177.561C415.8 176.456 414.904 175.561 413.8 175.561H340.8Z" fill="#FF9416"/>
</g>
<defs>
<clipPath id="clip0_1179_17">
<rect width="616" height="616" fill="white"/>
</clipPath>
</defs>
</svg>
