<svg width="1154" height="312" viewBox="0 0 1154 312" fill="none" xmlns="http://www.w3.org/2000/svg">
<rect x="85.8071" y="79.9424" width="183.316" height="176.424" fill="black"/>
<path fill-rule="evenodd" clip-rule="evenodd" d="M311.499 155.749C311.499 241.767 241.767 311.499 155.749 311.499C69.7314 311.499 0 241.767 0 155.749C0 69.7314 69.7314 0 155.749 0C241.767 0 311.499 69.7314 311.499 155.749ZM98.1233 88.7777H137.061V227.395H98.1233V88.7777ZM210.264 88.7777H171.326V227.395H210.264V88.7777Z" fill="#FF9416"/>
<path d="M943.118 221.908L1000.85 89.5903H1044.63L1102.36 221.908H1056.33L1013.68 110.761H1031.04L988.402 221.908H943.118ZM977.458 198.847L988.779 166.713H1049.53L1060.86 198.847H977.458Z" fill="#FF9416"/>
<path d="M1109.47 221.908V89.5903H1154V221.908H1109.47Z" fill="#FF9416"/>
<path d="M269.123 221.652V89.8462H332.727C345.058 89.8462 355.69 91.8547 364.624 95.8716C373.683 99.8886 380.666 105.663 385.573 113.195C390.481 120.601 392.934 129.388 392.934 139.556C392.934 149.724 390.481 158.511 385.573 165.917C380.666 173.323 373.683 179.098 364.624 183.24C355.69 187.257 345.058 189.266 332.727 189.266H293.847L313.665 170.248V221.652H269.123ZM313.665 175.143L293.847 154.996H329.896C336.061 154.996 340.591 153.615 343.485 150.854C346.505 148.092 348.015 144.326 348.015 139.556C348.015 134.786 346.505 131.02 343.485 128.258C340.591 125.497 336.061 124.116 329.896 124.116H293.847L313.665 103.968V175.143Z" fill="white"/>
<path d="M386.563 221.652L444.316 89.8462H488.103L545.857 221.652H499.805L457.15 110.935H474.514L431.86 221.652H386.563ZM420.913 198.68L432.237 166.67H493.01L504.334 198.68H420.913Z" fill="white"/>
<path d="M613.427 224.665C593.169 224.665 577.379 219.204 566.054 208.283C554.73 197.362 549.068 182.048 549.068 162.339V89.8462H593.61V161.021C593.61 171.064 595.434 178.219 599.083 182.487C602.732 186.629 607.639 188.701 613.805 188.701C620.096 188.701 625.003 186.629 628.526 182.487C632.175 178.219 634 171.064 634 161.021V89.8462H677.786V162.339C677.786 182.048 672.124 197.362 660.8 208.283C649.476 219.204 633.685 224.665 613.427 224.665Z" fill="white"/>
<path d="M747.464 224.665C736.392 224.665 725.697 223.41 715.379 220.899C705.061 218.388 696.568 215.125 689.9 211.108L704.244 178.721C710.535 182.361 717.518 185.311 725.193 187.571C732.994 189.705 740.544 190.772 747.842 190.772C752.12 190.772 755.454 190.521 757.845 190.019C760.361 189.391 762.186 188.575 763.318 187.571C764.451 186.441 765.017 185.123 765.017 183.617C765.017 181.232 763.696 179.349 761.053 177.968C758.411 176.587 754.888 175.457 750.484 174.579C746.206 173.574 741.488 172.57 736.329 171.566C731.17 170.436 725.948 168.993 720.664 167.235C715.505 165.478 710.724 163.155 706.32 160.268C702.042 157.381 698.581 153.615 695.939 148.971C693.297 144.2 691.976 138.301 691.976 131.271C691.976 123.112 694.24 115.705 698.77 109.052C703.426 102.274 710.283 96.8759 719.342 92.8589C728.528 88.842 739.915 86.8335 753.504 86.8335C762.437 86.8335 771.245 87.775 779.927 89.6579C788.609 91.5409 796.41 94.428 803.33 98.3194L789.93 130.518C783.387 127.254 777.033 124.806 770.868 123.174C764.828 121.542 758.914 120.726 753.126 120.726C748.848 120.726 745.451 121.103 742.935 121.856C740.418 122.609 738.594 123.614 737.461 124.869C736.455 126.124 735.951 127.505 735.951 129.011C735.951 131.271 737.272 133.091 739.915 134.472C742.557 135.727 746.017 136.794 750.295 137.673C754.699 138.552 759.48 139.493 764.639 140.497C769.924 141.502 775.146 142.882 780.304 144.64C785.463 146.397 790.182 148.72 794.46 151.607C798.864 154.494 802.387 158.26 805.029 162.904C807.671 167.549 808.992 173.323 808.992 180.227C808.992 188.261 806.665 195.668 802.009 202.446C797.479 209.099 790.685 214.497 781.626 218.639C772.566 222.656 761.179 224.665 747.464 224.665Z" fill="white"/>
<path d="M863.014 138.803H921.9V170.813H863.014V138.803ZM866.034 188.136H932.091V221.652H822.247V89.8462H929.638V123.363H866.034V188.136Z" fill="white"/>
</svg>
