<svg width="78" height="78" viewBox="0 0 78 78" fill="none" xmlns="http://www.w3.org/2000/svg">
<mask id="mask0_4_162" style="mask-type:alpha" maskUnits="userSpaceOnUse" x="0" y="0" width="78" height="78">
<path d="M77.875 38.9375C77.875 60.4421 60.4421 77.875 38.9375 77.875C17.4329 77.875 0 60.4421 0 38.9375C0 17.4329 17.4329 0 38.9375 0C60.4421 0 77.875 17.4329 77.875 38.9375Z" fill="#FF9416"/>
</mask>
<g mask="url(#mask0_4_162)">
<path d="M77.875 38.9375C77.875 60.4421 60.4421 77.875 38.9375 77.875C17.4329 77.875 0 60.4421 0 38.9375C0 17.4329 17.4329 0 38.9375 0C60.4421 0 77.875 17.4329 77.875 38.9375Z" fill="#FF9416"/>
<path fill-rule="evenodd" clip-rule="evenodd" d="M61.8436 71.9718C61.6985 71.2715 61.6787 69.1913 62.7601 66.4727C64.1119 63.0745 64.4184 63.1205 65.6933 59.241C66.7132 56.1374 65.946 53.9554 65.4349 53.2524C64.7447 52.0528 62.4653 49.3933 58.869 48.3523C58.3401 48.1993 55.4058 47.4319 54.8079 47.2729C53.4541 46.9131 51.2243 45.6463 51.5036 44.5476C51.7829 43.4489 54.4637 43.7648 55.7705 44.2689C56.3477 44.4915 59.173 45.5943 59.6909 45.7811C63.2127 47.0514 66.621 46.2387 67.8849 45.6735C68.7119 45.405 70.6161 44.0905 71.6164 40.9805C72.8669 37.093 72.5918 36.9502 73.497 33.407C74.2212 30.5724 75.4707 28.9319 76 28.4506C75.2887 28.3721 73.3029 27.7481 71.0498 25.8802C68.2334 23.5453 68.3719 23.2682 65.0737 20.8577C62.4351 18.9293 60.1215 18.9842 59.2944 19.2528C57.9395 19.538 54.7041 20.8825 52.6021 23.9788C52.293 24.4342 50.6559 26.9858 50.3199 27.505C49.5591 28.6804 47.3705 30.4557 46.5141 29.8138C45.6577 29.1719 46.5141 26.8185 47.3705 25.7487C47.7488 25.2762 49.6122 22.9673 49.9397 22.5394C52.1663 19.6297 52.4375 16.1922 52.2948 14.8371C52.2948 13.9813 51.6525 11.799 49.0833 9.91624C45.8718 7.56276 45.6577 7.77671 42.6603 5.85114C40.2625 4.31068 39.0691 2.64186 38.7836 2C38.4982 2.64186 37.3821 4.31068 34.9842 5.85114C31.9868 7.77671 31.7727 7.56276 28.5613 9.91624C25.9921 11.799 25.3498 13.9813 25.3498 14.8371C25.2071 16.1922 25.4783 19.6297 27.7049 22.5394C28.0323 22.9673 29.8958 25.2762 30.2741 25.7487C31.1304 26.8185 32.1695 29.1719 31.3132 29.8138C30.4568 30.4557 28.4409 28.7087 27.6801 27.5333C27.3441 27.0141 25.707 24.4624 25.3979 24.0071C23.2959 20.9108 20.0605 19.5662 18.7056 19.281C17.8785 19.0125 15.5649 18.9575 12.9263 20.886C9.62814 23.2965 9.76664 23.5735 6.95023 25.9084C4.69711 27.7763 2.71128 28.4003 2 28.4788C2.52926 28.9601 3.77881 30.6006 4.50296 33.4352C5.40815 36.9785 5.13314 37.1213 6.38358 41.0087C7.38393 44.1187 9.28806 45.4333 10.1151 45.7018C11.379 46.2669 14.7873 47.0796 18.3091 45.8093C18.827 45.6225 21.6523 44.5198 22.2295 44.2971C23.5363 43.793 26.1758 43.5473 26.4964 44.5968C26.8171 45.6463 24.5459 46.9414 23.1921 47.3012C22.5942 47.4601 19.6599 48.2275 19.131 48.3806C15.5347 49.4215 13.2553 52.081 12.5651 53.2806C12.054 53.9837 11.2868 56.1656 12.3067 59.2692C13.5816 63.1487 13.8881 63.1027 15.2399 66.501C16.3213 69.2196 16.3015 71.2997 16.1564 72C16.778 71.6457 18.7254 70.9651 21.6469 71.1528C25.2988 71.3874 25.3497 71.6929 29.4358 71.7058C32.7047 71.7161 34.5442 70.3126 35.0553 69.6096C35.9837 68.5829 37.8104 65.5948 37.6897 61.8551C37.672 61.3052 37.4956 58.2792 37.462 57.6618C37.3861 56.264 37.9502 53.6689 39.0207 53.6689C40.0912 53.6689 40.6139 56.2358 40.538 57.6336C40.5044 58.251 40.328 61.2769 40.3103 61.8269C40.1896 65.5665 42.0163 68.5547 42.9447 69.5813C43.4558 70.2843 45.2953 71.6878 48.5642 71.6775C52.6503 71.6647 52.7012 71.3592 56.3531 71.1245C59.2746 70.9368 61.222 71.6175 61.8436 71.9718ZM32.9415 25.1173C33.4608 26.6728 33.1579 29.8704 31.8596 30.7346C30.6353 31.7004 27.958 31.0451 26.6369 30.0712C25.3157 29.0974 23.174 26.0648 21.3168 24.7807C20.1489 24.1747 18.1272 23.6658 15.0972 25.7161C13.0549 27.098 10.272 30.057 8.35823 30.3448C9.73705 31.7008 10.2466 35.728 11.0854 38.0446C12.3297 41.4816 14.265 42.2565 15.5665 42.4516C17.825 42.5028 21.1678 41.1793 22.8099 41.1669C25.2894 41.1481 27.1102 42.6297 27.5322 44.1296C28.1813 45.858 26.6252 48.3626 25.2894 49.3163C23.9536 50.2699 20.4701 51.1611 18.6732 52.528C17.735 53.4498 16.6255 55.2124 17.6421 58.7234C18.3273 61.0898 20.2857 64.647 19.9684 66.5532C21.6861 65.6629 25.6794 66.4234 28.1451 66.3428C31.8034 66.2233 33.1395 64.6249 33.7275 63.4492C34.4742 61.3204 34.2466 57.737 34.7421 56.1737C35.2377 54.6105 37.441 52.551 39 52.6138C40.559 52.551 42.5154 54.6105 43.011 56.1737C43.5066 57.737 43.279 61.3204 44.0256 63.4492C44.6137 64.6249 45.9497 66.2233 49.608 66.3428C52.0737 66.4234 56.067 65.6629 57.7847 66.5532C57.4674 64.647 59.4259 61.0898 60.111 58.7234C61.1276 55.2124 60.0181 53.4498 59.08 52.528C57.283 51.1611 53.7995 50.2699 52.4637 49.3163C51.1279 48.3626 49.5718 45.858 50.221 44.1296C50.6429 42.6297 52.4637 41.1481 54.9433 41.1669C56.5854 41.1793 59.9282 42.5028 62.1866 42.4516C63.4882 42.2565 65.4234 41.4816 66.6678 38.0446C67.5065 35.728 68.0161 31.7008 69.3949 30.3448C67.4812 30.057 64.6982 27.098 62.656 25.7161C59.626 23.6658 57.6042 24.1747 56.4363 24.7807C54.5791 26.0648 52.6538 29.0974 51.3326 30.0712C50.0115 31.0451 47.1483 31.4843 45.924 30.5185C44.6257 29.6543 44.1064 26.6728 44.6257 25.1173C45.145 23.5617 47.4386 20.7963 48.0877 18.6358C48.3041 17.3395 48.1641 15.2623 45.2749 13.0185C43.3275 11.5062 39.6491 9.77778 38.7836 8.04938C37.9181 9.77778 34.2398 11.5062 32.2924 13.0185C29.4032 15.2623 29.2632 17.3395 29.4795 18.6358C30.1287 20.7963 32.4222 23.5617 32.9415 25.1173Z" fill="black"/>
<path d="M24.7783 21.3809H34.611V56.3853H24.7783V21.3809Z" fill="black"/>
<path d="M43.2638 21.3809H53.0965V56.3853H43.2638V21.3809Z" fill="black"/>
</g>
</svg>
