<svg width="289" height="84" viewBox="0 0 289 84" fill="none" xmlns="http://www.w3.org/2000/svg">
<mask id="mask0_4_197" style="mask-type:alpha" maskUnits="userSpaceOnUse" x="0" y="0" width="78" height="78">
<path d="M77.875 38.9375C77.875 60.4421 60.4421 77.875 38.9375 77.875C17.4329 77.875 0 60.4421 0 38.9375C0 17.4329 17.4329 0 38.9375 0C60.4421 0 77.875 17.4329 77.875 38.9375Z" fill="#FF9416"/>
</mask>
<g mask="url(#mask0_4_197)">
<path fill-rule="evenodd" clip-rule="evenodd" d="M77.875 38.9375C77.875 51.9014 71.5395 63.3856 61.7958 70.4628C61.8679 69.4558 62.1227 68.0752 62.7601 66.4727C63.2895 65.142 63.6585 64.3394 63.9882 63.6225C64.5004 62.5086 64.9176 61.6013 65.6933 59.241C66.7132 56.1374 65.946 53.9554 65.4349 53.2524C64.7447 52.0528 62.4653 49.3933 58.869 48.3523C58.4738 48.238 56.7357 47.7806 55.6327 47.4904L55.6314 47.49C55.2588 47.392 54.9589 47.3131 54.8079 47.2729C54.301 47.1382 53.6713 46.8763 53.0965 46.5438V43.8086C53.999 43.7874 55.0778 44.0017 55.7705 44.2689C55.9163 44.3251 56.2055 44.4375 56.5648 44.5771L56.5659 44.5776C57.629 44.9907 59.304 45.6415 59.6909 45.7811C63.2127 47.0514 66.621 46.2387 67.8849 45.6735C68.7119 45.405 70.6161 44.0905 71.6164 40.9805C72.3772 38.6153 72.5733 37.6363 72.8141 36.4343C72.9691 35.6606 73.1426 34.7945 73.497 33.407C74.2212 30.5724 75.4707 28.9319 76 28.4506C75.2887 28.3721 73.3029 27.7481 71.0498 25.8802C69.9469 24.9659 69.2971 24.3671 68.7167 23.8322C67.8148 23.0012 67.0803 22.3243 65.0737 20.8577C62.4351 18.9293 60.1215 18.9842 59.2944 19.2528C58.0418 19.5165 55.1821 20.6854 53.0965 23.3069V21.3809H50.7139C52.2299 18.7692 52.4189 16.0156 52.2948 14.8371C52.2948 13.9813 51.6525 11.799 49.0833 9.91624C47.1294 8.48437 46.285 8.00285 45.2483 7.41165C44.581 7.03114 43.8341 6.60518 42.6603 5.85114C40.2625 4.31068 39.0691 2.64186 38.7836 2C38.4982 2.64186 37.3821 4.31068 34.9842 5.85114C33.8105 6.60518 33.0635 7.03114 32.3962 7.41165C31.3595 8.00285 30.5152 8.48436 28.5613 9.91624C25.9921 11.799 25.3498 13.9813 25.3498 14.8371C25.2257 16.0156 25.4146 18.7692 26.9307 21.3809H24.7783V23.1806C22.7049 20.6676 19.9333 19.5395 18.7056 19.281C17.8785 19.0125 15.5649 18.9575 12.9263 20.886C10.9197 22.3525 10.1852 23.0294 9.28333 23.8604C8.70288 24.3953 8.05312 24.9941 6.95023 25.9084C4.69711 27.7763 2.71128 28.4003 2 28.4788C2.52926 28.9601 3.77881 30.6006 4.50296 33.4352C4.85743 34.8227 5.03091 35.6888 5.18589 36.4625C5.42668 37.6645 5.6228 38.6436 6.38358 41.0087C7.38393 44.1187 9.28806 45.4333 10.1151 45.7018C11.379 46.2669 14.7873 47.0796 18.3091 45.8093C18.6962 45.6697 20.3721 45.0185 21.4351 44.6054C21.7944 44.4658 22.0837 44.3534 22.2295 44.2971C22.8944 44.0406 23.9044 43.851 24.7783 43.8649V46.6424C24.2365 46.9411 23.6596 47.1769 23.1921 47.3012C23.0411 47.3413 22.7411 47.4203 22.3684 47.5183C21.2655 47.8085 19.5263 48.2662 19.131 48.3806C15.5347 49.4215 13.2553 52.081 12.5651 53.2806C12.054 53.9836 11.2868 56.1656 12.3067 59.2692C13.0824 61.6295 13.4996 62.5368 14.0118 63.6507C14.3415 64.3677 14.7105 65.1702 15.2399 66.501C15.8912 68.1384 16.1431 69.5442 16.2087 70.5564C6.39165 63.4872 0 51.9588 0 38.9375C0 17.4329 17.4329 0 38.9375 0C60.4421 0 77.875 17.4329 77.875 38.9375ZM17.556 71.4844C16.8846 71.6565 16.4101 71.8554 16.1564 72C16.2141 71.7215 16.252 71.2248 16.2087 70.5564C16.6509 70.8749 17.1001 71.1843 17.556 71.4844ZM60.3846 71.4411C61.0875 71.6166 61.5825 71.823 61.8436 71.9718C61.784 71.6843 61.7456 71.1642 61.7958 70.4628C61.333 70.799 60.8625 71.1252 60.3846 71.4411ZM60.3846 71.4411C54.2343 75.5075 46.8624 77.875 38.9375 77.875C31.0408 77.875 23.693 75.5243 17.556 71.4844C18.5297 71.2348 19.9177 71.0417 21.6469 71.1528C23.077 71.2447 23.9548 71.3474 24.739 71.4392C25.9574 71.5818 26.9498 71.698 29.4358 71.7058C32.7047 71.7161 34.5442 70.3126 35.0553 69.6096C35.9837 68.5829 37.8104 65.5947 37.6897 61.8551C37.6765 61.4442 37.5746 59.6507 37.51 58.5127C37.4881 58.1278 37.4705 57.8179 37.462 57.6618C37.3861 56.264 37.9502 53.6689 39.0207 53.6689C40.0912 53.6689 40.6139 56.2358 40.538 57.6336C40.5295 57.7896 40.5119 58.0996 40.49 58.4846C40.4254 59.6226 40.3235 61.4159 40.3103 61.8269C40.1896 65.5665 42.0163 68.5547 42.9447 69.5813C43.4558 70.2843 45.2953 71.6878 48.5642 71.6775C51.0502 71.6697 52.0426 71.5536 53.261 71.4109C54.0452 71.3192 54.923 71.2164 56.3531 71.1245C58.0474 71.0157 59.4141 71.1989 60.3846 71.4411ZM30.8159 21.3809C30.2539 20.4462 29.7372 19.4933 29.4795 18.6358C29.2632 17.3395 29.4032 15.2623 32.2924 13.0185C32.9356 12.519 33.7677 11.9959 34.6249 11.457C36.3628 10.3644 38.204 9.20689 38.7836 8.04938C39.3632 9.20689 41.2044 10.3644 42.9424 11.457C43.7996 11.9959 44.6316 12.519 45.2749 13.0185C48.1641 15.2623 48.3041 17.3395 48.0877 18.6358C47.8301 19.4934 47.3133 20.4462 46.7513 21.3809H43.2638V56.3853H53.0965V49.6921C53.6722 49.9889 54.4093 50.2865 55.1895 50.6015C56.5691 51.1586 58.0837 51.7702 59.08 52.528C60.0181 53.4498 61.1276 55.2124 60.111 58.7234C59.8847 59.505 59.5195 60.4166 59.1432 61.3556C58.3804 63.2596 57.5722 65.2766 57.7847 66.5532C56.6344 65.957 54.4635 66.1011 52.4142 66.2372C51.4035 66.3043 50.4224 66.3694 49.608 66.3428C45.9497 66.2233 44.6137 64.6249 44.0256 63.4492C43.6117 62.269 43.4972 60.6417 43.3929 59.1594C43.3091 57.968 43.2318 56.8703 43.011 56.1737C42.5154 54.6105 40.559 52.551 39 52.6138C37.441 52.551 35.2377 54.6105 34.7421 56.1737C34.5213 56.8703 34.4441 57.968 34.3602 59.1594C34.256 60.6417 34.1415 62.269 33.7275 63.4492C33.1395 64.6249 31.8034 66.2233 28.1451 66.3428C27.3307 66.3694 26.3496 66.3043 25.3389 66.2372C23.2897 66.1011 21.1187 65.957 19.9684 66.5532C20.1809 65.2766 19.3727 63.2596 18.6099 61.3556C18.2336 60.4166 17.8684 59.505 17.6421 58.7234C16.6255 55.2124 17.735 53.4498 18.6732 52.528C19.6694 51.7702 21.184 51.1586 22.5636 50.6015C23.4 50.2638 24.1867 49.9461 24.7783 49.628V56.3853H34.611V21.3809H30.8159ZM24.4909 27.8925C24.5877 28.0008 24.6836 28.1082 24.7783 28.2139V41.4913C24.1892 41.2816 23.5271 41.1614 22.8099 41.1669C22.0781 41.1724 21.0087 41.4383 19.848 41.7268C18.404 42.0859 16.8186 42.48 15.5665 42.4516C14.265 42.2565 12.3297 41.4816 11.0854 38.0446C10.8083 37.2794 10.5672 36.3276 10.3188 35.3471C9.81518 33.359 9.28163 31.2529 8.35823 30.3448C9.63985 30.152 11.3113 28.7613 12.8891 27.4485C13.6672 26.801 14.4226 26.1725 15.0972 25.7161C18.1272 23.6658 20.1489 24.1747 21.3168 24.7807C22.3502 25.4952 23.4717 26.7511 24.4909 27.8925ZM54.9433 41.1669C54.275 41.1618 53.6546 41.2657 53.0965 41.4496V28.2392C53.1962 28.1212 53.2972 28.0012 53.3992 27.8799C54.3561 26.7419 55.4067 25.4926 56.4363 24.7807C57.6042 24.1747 59.626 23.6658 62.656 25.7161C63.3305 26.1725 64.0859 26.801 64.8641 27.4485C66.4418 28.7613 68.1133 30.152 69.3949 30.3448C68.4715 31.2529 67.938 33.359 67.4343 35.3471C67.1859 36.3276 66.9448 37.2794 66.6678 38.0446C65.4234 41.4816 63.4882 42.2565 62.1866 42.4516C60.9345 42.48 59.3492 42.0859 57.9051 41.7268C56.7444 41.4383 55.675 41.1724 54.9433 41.1669Z" fill="#FF9416"/>
</g>
<path d="M235.749 55.477L250.183 22.3975H261.126L275.56 55.477H264.051L253.39 27.6902H257.73L247.07 55.477H235.749ZM244.334 49.7117L247.164 41.6781H262.353L265.183 49.7117H244.334Z" fill="#FF9416"/>
<path d="M277.337 55.477V22.3975H288.469V55.477H277.337Z" fill="#FF9416"/>
<path d="M67.25 55.4127V22.4612H83.1511C86.2338 22.4612 88.8918 22.9633 91.1252 23.9675C93.39 24.9718 95.1359 26.4154 96.3626 28.2983C97.5894 30.1499 98.2028 32.3466 98.2028 34.8886C98.2028 37.4306 97.5894 39.6273 96.3626 41.4789C95.1359 43.3305 93.39 44.774 91.1252 45.8097C88.8918 46.8139 86.2338 47.316 83.1511 47.316H73.4311L78.3855 42.5616V55.4127H67.25ZM78.3855 43.7855L73.4311 38.7486H82.4433C83.9847 38.7486 85.1171 38.4034 85.8406 37.713C86.5955 37.0226 86.973 36.0811 86.973 34.8886C86.973 33.6961 86.5955 32.7546 85.8406 32.0642C85.1171 31.3738 83.9847 31.0286 82.4433 31.0286H73.4311L78.3855 25.9917V43.7855Z" fill="black"/>
<path d="M96.61 55.4127L111.048 22.4612H121.995L136.433 55.4127H124.921L114.257 27.7334H118.598L107.934 55.4127H96.61ZM105.198 49.6697L108.029 41.6672H123.222L126.053 49.6697H105.198Z" fill="black"/>
<path d="M153.326 56.1658C148.262 56.1658 144.314 54.8007 141.483 52.0704C138.652 49.3402 137.236 45.5115 137.236 40.5845V22.4612H148.372V40.255C148.372 42.7656 148.828 44.5544 149.74 45.6214C150.652 46.657 151.879 47.1748 153.42 47.1748C154.993 47.1748 156.22 46.657 157.101 45.6214C158.013 44.5544 158.469 42.7656 158.469 40.255V22.4612H169.416V40.5845C169.416 45.5115 168 49.3402 165.169 52.0704C162.338 54.8007 158.391 56.1658 153.326 56.1658Z" fill="black"/>
<path d="M186.835 56.1658C184.067 56.1658 181.393 55.852 178.814 55.2244C176.235 54.5967 174.111 53.7808 172.444 52.7765L176.03 44.6799C177.603 45.59 179.349 46.3275 181.268 46.8924C183.218 47.4259 185.105 47.6926 186.93 47.6926C187.999 47.6926 188.833 47.6298 189.43 47.5043C190.06 47.3474 190.516 47.1434 190.799 46.8924C191.082 46.6099 191.224 46.2804 191.224 45.9038C191.224 45.3075 190.893 44.8368 190.233 44.4916C189.572 44.1464 188.691 43.864 187.59 43.6443C186.521 43.3932 185.341 43.1422 184.052 42.8911C182.762 42.6087 181.456 42.2478 180.135 41.8084C178.846 41.3691 177.65 40.7885 176.549 40.0667C175.48 39.3449 174.615 38.4034 173.954 37.2423C173.294 36.0497 172.963 34.5748 172.963 32.8174C172.963 30.7775 173.529 28.926 174.662 27.2627C175.826 25.568 177.54 24.2186 179.805 23.2144C182.101 22.2101 184.948 21.708 188.345 21.708C190.579 21.708 192.781 21.9434 194.951 22.4141C197.122 22.8848 199.072 23.6066 200.802 24.5795L197.452 32.6291C195.816 31.8131 194.228 31.2012 192.686 30.7932C191.176 30.3852 189.698 30.1812 188.251 30.1812C187.181 30.1812 186.332 30.2754 185.703 30.4637C185.074 30.652 184.618 30.903 184.335 31.2169C184.083 31.5307 183.957 31.8759 183.957 32.2525C183.957 32.8174 184.287 33.2724 184.948 33.6176C185.609 33.9314 186.474 34.1982 187.543 34.4179C188.644 34.6375 189.839 34.8729 191.129 35.124C192.45 35.375 193.756 35.7202 195.045 36.1596C196.335 36.5989 197.515 37.1795 198.584 37.9013C199.685 38.6231 200.566 39.5646 201.227 40.7257C201.887 41.8869 202.217 43.3305 202.217 45.0565C202.217 47.065 201.635 48.9165 200.472 50.6112C199.339 52.2744 197.641 53.6239 195.376 54.6595C193.111 55.6637 190.264 56.1658 186.835 56.1658Z" fill="black"/>
<path d="M215.723 34.7003H230.444V42.7028H215.723V34.7003ZM216.478 47.0336H232.992V55.4127H205.531V22.4612H232.379V30.8403H216.478V47.0336Z" fill="black"/>
<path d="M111.619 78V61.4892H115.06V75.3398H123.908V78H111.619ZM126.244 78V61.4892H139.227V64.1494H129.685V68.3133H138.505V70.9735H129.685V75.3398H139.69V78H126.244ZM142.229 78V61.4892H145.67V78H142.229ZM156.576 75.5133C158.658 75.5133 160.114 74.4627 160.943 72.3614L163.95 73.5181C163.295 75.1181 162.34 76.3036 161.087 77.0747C159.834 77.8458 158.331 78.2313 156.576 78.2313C153.916 78.2313 151.863 77.4795 150.417 75.9759C148.972 74.4723 148.249 72.3711 148.249 69.6723C148.249 66.9542 148.943 64.8723 150.331 63.4265C151.738 61.9614 153.772 61.2289 156.432 61.2289C158.379 61.2289 159.96 61.6241 161.174 62.4145C162.389 63.1855 163.237 64.3229 163.719 65.8265L160.682 66.6651C160.432 65.8361 159.921 65.1807 159.15 64.6988C158.398 64.1976 157.511 63.947 156.49 63.947C154.928 63.947 153.743 64.4386 152.933 65.4217C152.123 66.3855 151.719 67.8024 151.719 69.6723C151.719 71.5614 152.133 73.0072 152.962 74.0096C153.81 75.012 155.015 75.5133 156.576 75.5133ZM166.205 78V61.4892H179.188V64.1494H169.646V68.3133H178.465V70.9735H169.646V75.3398H179.651V78H166.205ZM195.635 73.2289C195.635 74.8482 195.038 76.0916 193.843 76.959C192.647 77.8072 190.884 78.2313 188.551 78.2313C186.431 78.2313 184.773 77.8554 183.578 77.1036C182.382 76.3518 181.611 75.2145 181.264 73.6916L184.59 73.1422C184.821 74.0096 185.264 74.6458 185.92 75.0506C186.575 75.4554 187.491 75.6578 188.667 75.6578C191.076 75.6578 192.281 74.9157 192.281 73.4313C192.281 72.9687 192.137 72.5831 191.847 72.2747C191.578 71.9663 191.192 71.7157 190.691 71.5229C190.19 71.3108 189.226 71.0602 187.799 70.7711C186.565 70.4819 185.698 70.2506 185.197 70.0771C184.715 69.9036 184.281 69.7012 183.896 69.4699C183.51 69.2193 183.173 68.9301 182.884 68.6024C182.614 68.2747 182.402 67.8892 182.247 67.4458C182.112 66.9831 182.045 66.453 182.045 65.8554C182.045 64.3711 182.604 63.2337 183.722 62.4434C184.84 61.6337 186.469 61.2289 188.609 61.2289C190.652 61.2289 192.185 61.5566 193.206 62.212C194.247 62.8482 194.912 63.9084 195.202 65.3928L191.847 65.8265C191.674 65.1133 191.327 64.5831 190.806 64.2361C190.286 63.8699 189.534 63.6867 188.551 63.6867C186.45 63.6867 185.399 64.3422 185.399 65.653C185.399 66.0771 185.505 66.4337 185.717 66.7229C185.949 66.9928 186.276 67.2241 186.7 67.4169C187.144 67.6096 188.04 67.8506 189.39 68.1398C190.97 68.4675 192.098 68.7759 192.773 69.0651C193.467 69.3542 194.006 69.6916 194.392 70.0771C194.797 70.4434 195.105 70.8867 195.317 71.4072C195.529 71.9277 195.635 72.5349 195.635 73.2289ZM205.605 64.1494V78H202.164V64.1494H196.815V61.4892H210.955V64.1494H205.605ZM212.799 78V61.4892H225.782V64.1494H216.24V68.3133H225.059V70.9735H216.24V75.3398H226.245V78H212.799ZM240.118 78L236.272 71.7253H232.224V78H228.783V61.4892H237.024C238.991 61.4892 240.504 61.9133 241.564 62.7614C242.644 63.6096 243.183 64.8241 243.183 66.4048C243.183 67.5614 242.856 68.5639 242.2 69.412C241.545 70.241 240.658 70.7904 239.54 71.0602L243.993 78H240.118ZM239.713 66.5494C239.713 64.9687 238.692 64.1783 236.648 64.1783H232.224V69.0361H236.764C237.728 69.0361 238.46 68.8241 238.962 68.4C239.463 67.9566 239.713 67.3398 239.713 66.5494Z" fill="black"/>
</svg>
